inDegrees=no
num_controls=7
num_derivatives=13
num_iterations=249
num_multipliers=7
num_parameters=0
num_slacks=7
num_states=26
objective=6.468051
objective_accelerations=0.766556
objective_balance=0.023427
objective_effort=0.576847
objective_height=5.056411
objective_ligament=0.044809
solver_duration=2121.720319
status=Solve_Succeeded
success=true
DataType=double
version=3
OpenSimVersion=4.4-2022-07-23-0e9fedc
endheader
time	/jointset/ground_pelvis/pelvis_tilt/value	/jointset/ground_pelvis/pelvis_tx/value	/jointset/ground_pelvis/pelvis_ty/value	/jointset/hip_r/hip_flexion_r/value	/jointset/hip_r/hip_adduction_r/value	/jointset/hip_r/hip_rotation_r/value	/jointset/back/lumbar_extension/value	/jointset/patellofemoral_r/patellar_flexion_r/value	/jointset/knee_r/knee_flexion_r/value	/jointset/knee_r/knee_adduction_r/value	/jointset/knee_r/knee_rotation_r/value	/jointset/ankle_r/ankle_angle_r/value	/jointset/subtalar_r/subtalar_angle_r/value	/jointset/ground_pelvis/pelvis_tilt/speed	/jointset/ground_pelvis/pelvis_tx/speed	/jointset/ground_pelvis/pelvis_ty/speed	/jointset/hip_r/hip_flexion_r/speed	/jointset/hip_r/hip_adduction_r/speed	/jointset/hip_r/hip_rotation_r/speed	/jointset/back/lumbar_extension/speed	/jointset/patellofemoral_r/patellar_flexion_r/speed	/jointset/knee_r/knee_flexion_r/speed	/jointset/knee_r/knee_adduction_r/speed	/jointset/knee_r/knee_rotation_r/speed	/jointset/ankle_r/ankle_angle_r/speed	/jointset/subtalar_r/subtalar_angle_r/speed	/forceset/tau_hip_flexion_r	/forceset/tau_hip_adduction_r	/forceset/tau_hip_rotation_r	/forceset/tau_knee_flexion_r	/forceset/tau_ankle_angle_r	/forceset/tau_subtalar_angle_r	/forceset/tau_lumbar_extension	lambda_cid13_p0	lambda_cid14_p0	lambda_cid14_p1	lambda_cid14_p2	lambda_cid14_p3	lambda_cid14_p4	lambda_cid14_p5	/jointset/ground_pelvis/pelvis_tilt/accel	/jointset/ground_pelvis/pelvis_tx/accel	/jointset/ground_pelvis/pelvis_ty/accel	/jointset/hip_r/hip_flexion_r/accel	/jointset/hip_r/hip_adduction_r/accel	/jointset/hip_r/hip_rotation_r/accel	/jointset/back/lumbar_extension/accel	/jointset/patellofemoral_r/patellar_flexion_r/accel	/jointset/knee_r/knee_flexion_r/accel	/jointset/knee_r/knee_adduction_r/accel	/jointset/knee_r/knee_rotation_r/accel	/jointset/ankle_r/ankle_angle_r/accel	/jointset/subtalar_r/subtalar_angle_r/accel	gamma_cid13_p0	gamma_cid14_p0	gamma_cid14_p1	gamma_cid14_p2	gamma_cid14_p3	gamma_cid14_p4	gamma_cid14_p5
1.5	-0.2230191769396417	-0.001006374391323635	0.8146101186890715	0.9893339079577739	-0.2211789623860695	-0.125281886804176	-0.3117318996930545	0.830493944225937	0.8304939442259447	-0.008175206371549459	0.1745326851782493	0.2433794138751334	0.06238623489567501	0.5197444200892986	0.2326382969709225	0.5688055440086892	-2.30957962296144	5.67026597503687e-05	-0.2559923738326293	0.6964577139299601	-2.244825097134997	-2.244825097134961	0.4265678578576997	-0.0001060597786274673	-0.563199236520834	-0.163476097855112	-0.1406915968890349	-0.02926821587820101	0.01233961377637145	-0.3501086468535326	0.1151881240273873	-0.002631919636659067	0.1742999867920098	-23.35161295865069	-3.29876600345195	1.326068584186134	-3.231509098247982	-6.266452865642137	-644.7104132432859	64.63060611073054	0.4975340093311281	0.6995447311850682	-0.711563516390323	-1.300137668535343	-0.1295454130799651	-0.7548602663664805	1.806468293230158	-1.2833232306627	-1.28332323066271	0.4391259974713019	-0.07569191065372069	-0.6622998492306083	-0.2262731617719739	1.509779232896554e-07	-1.422545818190156e-07	-2.954973926382342e-06	-1.235700601107729e-06	4.410954588949673e-07	3.639324945661036e-08	-1.282372258388701e-06
1.51	-0.2177974973509167	0.001354609989602581	0.8202613199043871	0.9661760707282386	-0.2211847203572558	-0.1278858926930399	-0.3046781821013205	0.8079844409519741	0.8079844409520144	-0.003892129284594641	0.1745325035321383	0.2377151801006815	0.06074079857413846	0.5245128686193928	0.2395157798838035	0.5613083143689382	-2.321668492555474	-0.001205204251773577	-0.2647504129559449	0.7141778411883649	-2.256753031713129	-2.256753031713148	0.4300808979316926	4.268502572890187e-05	-0.5695630895094975	-0.1655773026837151	-0.1331167521317473	-0.03002927672860818	0.01207746690348434	-0.3449473382523095	0.1161856357988198	-0.004107207175077866	0.1674235915442931	-24.79248246562083	-2.733876569963852	0.8869472732798078	-3.278797873891033	-6.214795153876482	-638.898289591902	63.78671946833686	0.4546700663238375	0.6755915960908345	-0.7878075298689013	-1.115410860188471	-0.1249875057054065	-0.9276170963195706	1.738590457841555	-1.099168710807384	-1.099168710815748	0.3116265513482355	0.05534820798556168	-0.6106286544630852	-0.1980919514013491	1.141350876411358e-07	-3.578163036018162e-07	-3.841069195503496e-06	-2.941884916256819e-06	6.826724996673098e-07	-1.431859413038184e-07	-1.440688222889653e-06
1.52	-0.2125304993185961	0.003783117504607801	0.8258337478548849	0.9429069149516928	-0.2212031922326603	-0.1305757472453389	-0.2974505021338632	0.785365330304345	0.7853653303044194	0.0004269249108959074	0.1745328474404173	0.2319898676701873	0.05907514064271651	0.5288081088084999	0.2461429237867236	0.5530508910451304	-2.331843332363551	-0.002486078183968792	-0.2731621065194792	0.7312501890746091	-2.266746571868021	-2.266746571868096	0.4337632795650844	-9.48889705246361e-07	-0.5754149677293152	-0.1675204198321934	-0.1255419073744574	-0.03079033757901818	0.01181532003062189	-0.3397860296510857	0.1171831475702513	-0.005582494713501344	0.1605471962965793	-26.21416249580917	-2.176057143735625	0.4472364137920813	-3.326728627117724	-6.142393590095999	-633.2045725962919	62.92103920754742	0.4028923411336576	0.6494769291929222	-0.8636022532017025	-0.9173317113441188	-0.1333388172142175	-0.6855911544102171	1.67691241879808	-0.8964443460148463	-0.8964443460148687	0.4729943093510851	-0.1141676546118349	-0.5599048954614032	-0.1946556257470084	9.545048273277788e-08	-4.894248924603986e-07	-4.417903640811905e-06	-4.019969041517627e-06	8.315381184444204e-07	-2.600957642876048e-07	-1.478738988011111e-06
1.53	-0.2072230491865875	0.006276653627485178	0.8313199219626455	0.9195456287721213	-0.2212341727424088	-0.1333497104039722	-0.2900555280462783	0.7626559656463073	0.7626559656463503	0.004782013482804906	0.1745328251594246	0.2262088670187417	0.05739143790063852	0.5325862582097929	0.2525221350659981	0.5440679920051674	-2.340083220697529	-0.003695216063660952	-0.281624813994702	0.7476225586980915	-2.274795897303199	-2.274795897303219	0.4372322845565881	2.285913566633296e-06	-0.5806804147111843	-0.169167104356039	-0.1174460920265209	-0.03233476106543166	0.01132506127181461	-0.3356971848645222	0.1196005920025777	-0.006731794977851124	0.1533297181904273	-27.6133480975659	-1.159771591712952	0.2516739741787239	-3.439058021434672	-6.48197875081455	-627.8480262394851	62.62391301628256	0.3508847276567855	0.6260001405847477	-0.9330919767182264	-0.7277736933007669	-0.113616218503906	-0.9259317919595832	1.599088772447385	-0.7096265538063414	-0.7096265537980165	0.2796255154226677	0.05754615559769201	-0.4939961798569346	-0.1430258455110081	9.60589979858414e-08	-5.318332775870003e-07	-4.666148460819274e-06	-4.430696715022141e-06	8.818978513515979e-07	-3.104193840087094e-07	-1.389007978791858e-06
1.54	-0.2018806958629607	0.008832753245813247	0.8367127754305416	0.896111852449435	-0.2212770276199861	-0.1362081648869326	-0.2825004923547936	0.7398760177516116	0.7398760177516219	0.009170946488905244	0.1745328306480153	0.220378385581416	0.05569259811736053	0.5357887471322746	0.2586556228768616	0.5343867630722186	-2.346341360986556	-0.004860951749644011	-0.290060371385174	0.7632625098545386	-2.280863219199858	-2.280863219199822	0.440532166402997	4.605028878481647e-06	-0.5853111249053442	-0.1705478280721911	-0.109350276678578	-0.03387918455183606	0.01083480251297627	-0.3316083400779585	0.1220180364349067	-0.007881095242187823	0.1461122400842798	-28.98780379047252	-0.1496628711223193	0.05176012460040266	-3.546953355546742	-6.793695740160522	-622.5846849428798	62.27624520249645	0.2877602453714082	0.600332235510746	-1.003268231798897	-0.5209821023539862	-0.124658378472393	-0.6801611374600511	1.530428725390987	-0.5000436383108836	-0.5000436383109188	0.4391696803321279	-0.1143507922038335	-0.4329575379195735	-0.1414634642082957	9.450430797985486e-08	-5.516563400564269e-07	-4.737318151552966e-06	-4.65127289493583e-06	8.974209004635129e-07	-3.438696745803477e-07	-1.241078807509104e-06
1.55	-0.1965091966453109	0.01144884431419354	0.842005449256968	0.8726254659015752	-0.2213310834465964	-0.1391507134121066	-0.2747929508057925	0.7170453434668147	0.7170453434668204	0.01359194386500185	0.1745327753867676	0.2145047910464302	0.05398155164648754	0.5384161463347868	0.264509333492619	0.5240433882266389	-2.350597781715247	-0.005933167016977583	-0.2984467304663226	0.7781003737247698	-2.28493407564435	-2.284934075644343	0.4436381456252708	-1.565072183367596e-06	-0.5893031766934436	-0.1716087510260416	-0.1013434756131099	-0.03536399874388927	0.01008411465482901	-0.3275053646120487	0.1241186346740128	-0.008835389936817378	0.1389550773399641	-30.3364123206736	0.7417013991310402	-0.07430006480423944	-3.677998062501955	-6.971054714625888	-617.7184988024502	62.07240028002892	0.235945799298177	0.5700737049209952	-1.065637341271462	-0.3273047424717117	-0.09709023357420339	-0.9177013701433615	1.438651284666542	-0.309989972016608	-0.3099899720209237	0.2410354525885707	0.05749403086425287	-0.3664860309743508	-0.08176247626963973	9.045722930583253e-08	-5.454571829425879e-07	-4.604466497688737e-06	-4.652761484407924e-06	8.728060312895841e-07	-3.578789554797757e-07	-1.026095232109714e-06
1.56	-0.1911142802273151	0.01412190913479389	0.8471915362888719	0.8491066486095596	-0.2213955788524218	-0.1421770911434331	-0.2669413934047234	0.6941840839526722	0.6941840839526747	0.01804294571520418	0.1745329072544465	0.2085944445872195	0.05226122479301679	0.5404721872015835	0.2700503733208748	0.5130694041677009	-2.352827509817738	-0.006948867592724015	-0.3068262126155153	0.7920656802680981	-2.286980265068774	-2.286980265068796	0.4465330612240888	4.203082361910082e-05	-0.5926615097503116	-0.1724039045917411	-0.09333667454763905	-0.03684881293594826	0.009333426796707296	-0.3234023891461379	0.1262192329131172	-0.009789684631455121	0.131797914595652	-31.65887873832648	1.628600250044563	-0.2064991676392201	-3.801939985561009	-7.125165339539858	-612.9196023381207	61.80210573772938	0.1734885782282456	0.5377980780104638	-1.129390074470564	-0.1156435771140698	-0.1133554401549634	-0.6787857510688553	1.355917260010409	-0.0951102342974575	-0.09511023429746403	0.3969569556409764	-0.1043975928309885	-0.3062137916732488	-0.08830958657809593	9.339452502215836e-08	-4.884887161972062e-07	-4.238282588409877e-06	-4.200995068973556e-06	7.929963168914185e-07	-3.251217095659607e-07	-8.49872573507243e-07
